#!OML:ASF H:\Dans Jumps\Project 1\Capture day 1\Session 1\subject.ASF
:FULLY-SPECIFIED
:DEGREES
671
root 0.212227 17.2338 -8.56696 13.4891 -1.73358 -1.06394
lowerback 8.85771 -0.0244291 -0.730477
upperback 6.82136 -0.0971957 1.58023
thorax 2.11369 -0.112516 2.04983
lowerneck -14.6969 0.504842 -1.20843
upperneck 28.2208 0.873098 0.540777
head 11.6307 0.324724 0.530033
rclavicle -7.05686e-015 7.55382e-015
rhumerus -18.9624 -4.6087 -84.779
rradius 26.9536
rwrist 28.0548
rhand -18.658 -25.6199
rfingers 7.12502
rthumb 7.63523 -55.4621
lclavicle -7.05686e-015 7.55382e-015
lhumerus -16.4402 -11.4643 92.0223
lradius 21.6146
lwrist 16.153
lhand -27.764 -2.98066
lfingers 7.12502
lthumb -1.15797 26.9959
rfemur -35.5814 -3.74751 20.2739
rtibia 39.125
rfoot -15.0563 -2.10319
rtoes 14.3793
lfemur -34.0822 6.48527 -19.1801
ltibia 36.1259
lfoot -13.4947 6.40255
ltoes 4.83505
672
root 0.209285 17.2334 -8.56576 13.4649 -1.71668 -1.07106
lowerback 8.83488 -0.0226031 -0.736458
upperback 6.81632 -0.0950657 1.57982
thorax 2.12086 -0.111647 2.05255
lowerneck -14.6897 0.497414 -1.21233
upperneck 28.2495 0.863475 0.541598
head 11.6405 0.319982 0.529799
rclavicle 9.93923e-017 7.15625e-015
rhumerus -18.9186 -4.56484 -84.789
rradius 26.9702
rwrist 28.0161
rhand -18.6706 -25.5984
rfingers 7.12502
rthumb 7.62314 -55.441
lclavicle 9.93923e-017 7.15625e-015
lhumerus -16.4646 -11.4902 92.0542
lradius 21.6167
lwrist 16.178
lhand -27.7064 -2.81799
lfingers 7.12502
lthumb -1.10231 27.1589
rfemur -35.5456 -3.76494 20.2957
rtibia 39.1228
rfoot -15.0671 -2.10111
rtoes 14.3667
lfemur -34.0536 6.44767 -19.1506
ltibia 36.1317
lfoot -13.4811 6.44006
ltoes 4.8055
673
root 0.206413 17.2334 -8.56459 13.4394 -1.69656 -1.07986
lowerback 8.81213 -0.022335 -0.738966
upperback 6.81016 -0.0947601 1.57996
thorax 2.12688 -0.111558 2.05401
lowerneck -14.6787 0.490016 -1.21777
upperneck 28.2775 0.853745 0.544119
head 11.6492 0.315247 0.530418
rclavicle -5.26779e-015 -1.59028e-015
rhumerus -18.8663 -4.54741 -84.7962
rradius 26.9733
rwrist 27.9951
rhand -18.6928 -25.5778
rfingers 7.12502
rthumb 7.60165 -55.4212
lclavicle -5.26779e-015 -1.59028e-015
lhumerus -16.4856 -11.5215 92.0839
lradius 21.6133
lwrist 16.1936
lhand -27.8204 -2.91878
lfingers 7.12502
lthumb -1.2125 27.0575
rfemur -35.5023 -3.77276 20.3168
rtibia 39.111
rfoot -15.0733 -2.112
rtoes 14.3535
lfemur -34.0188 6.4056 -19.118
ltibia 36.127
lfoot -13.4626 6.47659
ltoes 4.76695
674
root 0.203549 17.234 -8.56338 13.413 -1.6719 -1.08959
lowerback 8.78728 -0.0238191 -0.7395
upperback 6.80425 -0.0966464 1.58103
thorax 2.1344 -0.112524 2.05547
lowerneck -14.6637 0.481878 -1.22581
upperneck 28.2989 0.842853 0.549128
head 11.6545 0.310069 0.532181
rclavicle -1.12313e-014 2.38542e-015
rhumerus -18.8068 -4.55365 -84.8007
rradius 26.9684
rwrist 27.9887
rhand -18.7216 -25.5533
rfingers 7.12502
rthumb 7.5739 -55.3977
lclavicle -1.12313e-014 2.38542e-015
lhumerus -16.5037 -11.5452 92.1105
lradius 21.6078
lwrist 16.1848
lhand -27.9981 -3.13558
lfingers 7.12502
lthumb -1.38404 26.8397
rfemur -35.451 -3.77264 20.3368
rtibia 39.0884
rfoot -15.0764 -2.13571
rtoes 14.3421
lfemur -33.977 6.36059 -19.0834
ltibia 36.1105
lfoot -13.4418 6.50836
ltoes 4.73291
675
root 0.200793 17.2352 -8.56201 13.3859 -1.64475 -1.09794
lowerback 8.75937 -0.0263821 -0.738755
upperback 6.79734 -0.0998546 1.58121
thorax 2.14259 -0.114077 2.05537
lowerneck -14.646 0.473295 -1.23348
upperneck 28.3178 0.830735 0.555606
head 11.6583 0.304585 0.534224
rclavicle -4.96962e-016 -1.39149e-014
rhumerus -18.7454 -4.58328 -84.8035
rradius 26.9594
rwrist 27.9931
rhand -18.7446 -25.5354
rfingers 7.12502
rthumb 7.55171 -55.3805
lclavicle -4.96962e-016 -1.39149e-014
lhumerus -16.5203 -11.5673 92.1336
lradius 21.5997
lwrist 16.1601
lhand -28.2991 -3.57307
lfingers 7.12502
lthumb -1.67474 26.4001
rfemur -35.3914 -3.76847 20.3535
rtibia 39.0543
rfoot -15.0755 -2.16599
rtoes 14.332
lfemur -33.9275 6.31674 -19.051
ltibia 36.0822
lfoot -13.4221 6.53262
ltoes 4.71504
676
root 0.19807 17.2369 -8.56045 13.3576 -1.61473 -1.1048
lowerback 8.72732 -0.0302776 -0.739204
upperback 6.79077 -0.104902 1.58213
thorax 2.15351 -0.116628 2.05681
lowerneck -14.618 0.463498 -1.24994
upperneck 28.3237 0.817084 0.568903
head 11.6549 0.298421 0.539958
rclavicle -2.18663e-015 3.37934e-015
rhumerus -18.6848 -4.62325 -84.8044
rradius 26.9538
rwrist 27.9969
rhand -18.7628 -25.525
rfingers 7.12502
rthumb 7.53412 -55.3709
lclavicle -2.18663e-015 3.37934e-015
lhumerus -16.5342 -11.5761 92.1538
lradius 21.5907
lwrist 16.1149
lhand -28.4997 -3.88843
lfingers 7.12502
lthumb -1.86853 26.0831
rfemur -35.3225 -3.76005 20.3664
rtibia 39.009
rfoot -15.0721 -2.20076
rtoes 14.3361
lfemur -33.8697 6.27696 -19.021
ltibia 36.0416
lfoot -13.4019 6.5469
ltoes 4.71564
677
root 0.195432 17.2391 -8.55874 13.327 -1.58235 -1.11031
lowerback 8.69303 -0.0345918 -0.74018
upperback 6.78391 -0.110532 1.58362
thorax 2.16538 -0.119503 2.05917
lowerneck -14.5836 0.452418 -1.27258
upperneck 28.3212 0.801611 0.587499
head 11.6469 0.291508 0.54838
rclavicle -5.46658e-015 -1.31198e-014
rhumerus -18.6299 -4.67074 -84.8029
rradius 26.9537
rwrist 27.9983
rhand -18.7754 -25.5163
rfingers 7.12502
rthumb 7.52195 -55.3626
lclavicle -5.46658e-015 -1.31198e-014
lhumerus -16.5483 -11.577 92.1731
lradius 21.5766
lwrist 16.044
lhand -28.6784 -4.22362
lfingers 7.12502
lthumb -2.04107 25.7464
rfemur -35.2436 -3.75203 20.3765
rtibia 38.9528
rfoot -15.0666 -2.23507
rtoes 14.3484
lfemur -33.8022 6.24259 -18.994
ltibia 35.9887
lfoot -13.3822 6.55154
ltoes 4.72695
678
root 0.192946 17.2419 -8.55667 13.2932 -1.54891 -1.11304
lowerback 8.65466 -0.038728 -0.742158
upperback 6.77704 -0.115985 1.58502
thorax 2.17948 -0.122337 2.06198
lowerneck -14.5518 0.440874 -1.29531
upperneck 28.3203 0.78551 0.606219
head 11.64 0.284313 0.5568
rclavicle 2.88238e-015 -2.18663e-015
rhumerus -18.5818 -4.71753 -84.7998
rradius 26.9583
rwrist 27.987
rhand -18.7837 -25.5154
rfingers 7.12502
rthumb 7.51395 -55.3619
lclavicle 2.88238e-015 -2.18663e-015
lhumerus -16.5646 -11.5766 92.1931
lradius 21.5588
lwrist 15.9616
lhand -28.7132 -4.36522
lfingers 7.12502
lthumb -2.07476 25.6044
rfemur -35.1521 -3.74666 20.382
rtibia 38.885
rfoot -15.0608 -2.26372
rtoes 14.3762
lfemur -33.7223 6.21609 -18.9725
ltibia 35.9217
lfoot -13.3625 6.54618
ltoes 4.74548
